<svg xmlns="http://www.w3.org/2000/svg" xmlns:xlink="http://www.w3.org/1999/xlink" width="50" zoomAndPan="magnify" viewBox="0 0 37.5 37.499999" height="50" preserveAspectRatio="xMidYMid meet" version="1.0"><defs><clipPath id="462f10b395"><path d="M 4 5.808594 L 32.820312 5.808594 L 32.820312 30.976562 L 4 30.976562 Z M 4 5.808594 " clip-rule="nonzero"/></clipPath><clipPath id="54d2158552"><path d="M 3.699219 8.855469 L 31.085938 8.855469 L 31.085938 31.058594 L 3.699219 31.058594 Z M 3.699219 8.855469 " clip-rule="nonzero"/></clipPath><clipPath id="9abc6a6c28"><path d="M 3.699219 8.855469 L 31 8.855469 L 31 31 L 3.699219 31 Z M 3.699219 8.855469 " clip-rule="nonzero"/></clipPath></defs><g clip-path="url(#462f10b395)"><path fill="#000000" d="M 19.234375 6.289062 C 19.0625 5.992188 18.746094 5.808594 18.402344 5.808594 C 18.0625 5.808594 17.742188 5.992188 17.574219 6.289062 L 4.132812 29.539062 C 3.964844 29.835938 3.964844 30.203125 4.132812 30.5 C 4.304688 30.796875 4.621094 30.976562 4.964844 30.976562 L 31.84375 30.976562 C 31.84375 30.976562 31.847656 30.976562 31.847656 30.976562 C 32.378906 30.976562 32.808594 30.546875 32.808594 30.019531 C 32.808594 29.808594 32.738281 29.613281 32.625 29.453125 Z M 6.628906 29.058594 L 18.402344 8.6875 L 30.179688 29.058594 Z M 6.628906 29.058594 " fill-opacity="1" fill-rule="nonzero"/></g><g clip-path="url(#54d2158552)"><path fill="#d83922" d="M 4.433594 30.878906 L 3.707031 30.210938 L 6.578125 24.316406 L 10.058594 25.488281 L 13.988281 18.378906 L 18.417969 21.113281 L 25.875 13.023438 L 25.457031 12.636719 L 24.828125 12.042969 L 30.351562 8.855469 L 31.078125 9.519531 L 28.867188 15.785156 L 28.214844 15.199219 L 27.8125 14.824219 L 18.65625 24.863281 L 14.964844 22.582031 L 11.308594 28.714844 L 7.816406 27.539062 L 4.757812 31.058594 L 4.433594 30.878906 " fill-opacity="1" fill-rule="evenodd"/></g><g clip-path="url(#9abc6a6c28)"><path fill="#f57545" d="M 3.707031 30.210938 L 5.851562 23.652344 L 9.332031 24.824219 L 13.261719 17.710938 L 17.6875 20.449219 L 25.144531 12.355469 L 24.730469 11.96875 L 24.097656 11.378906 L 30.351562 8.855469 L 28.136719 15.117188 L 27.484375 14.53125 L 27.082031 14.160156 L 18.148438 23.855469 L 14.234375 21.433594 L 10.582031 28.046875 L 7.089844 26.871094 L 4.027344 30.390625 L 3.707031 30.210938 " fill-opacity="1" fill-rule="evenodd"/></g><path fill="#941a1f" d="M 14.234375 21.433594 L 14.964844 22.582031 L 18.65625 24.863281 L 18.148438 23.855469 L 14.234375 21.433594 " fill-opacity="1" fill-rule="evenodd"/><path fill="#941a1f" d="M 7.089844 26.871094 L 7.816406 27.539062 L 11.308594 28.714844 L 10.582031 28.046875 L 7.089844 26.871094 " fill-opacity="1" fill-rule="evenodd"/></svg>