<svg xmlns="http://www.w3.org/2000/svg" xmlns:xlink="http://www.w3.org/1999/xlink" width="50" zoomAndPan="magnify" viewBox="0 0 37.5 37.499999" height="50" preserveAspectRatio="xMidYMid meet" version="1.0"><defs><clipPath id="bdd27ee568"><path d="M 3.699219 3.699219 L 33.15625 3.699219 L 33.15625 33.15625 L 3.699219 33.15625 Z M 3.699219 3.699219 " clip-rule="nonzero"/></clipPath><clipPath id="edfee7d372"><path d="M 9.121094 24 L 13 24 L 13 33.332031 L 9.121094 33.332031 Z M 9.121094 24 " clip-rule="nonzero"/></clipPath><clipPath id="7209baa687"><path d="M 14 21 L 18 21 L 18 33.332031 L 14 33.332031 Z M 14 21 " clip-rule="nonzero"/></clipPath><clipPath id="cd6e5b504b"><path d="M 19 17 L 23 17 L 23 33.332031 L 19 33.332031 Z M 19 17 " clip-rule="nonzero"/></clipPath><clipPath id="d8d0733e36"><path d="M 24 14.539062 L 27.914062 14.539062 L 27.914062 33.332031 L 24 33.332031 Z M 24 14.539062 " clip-rule="nonzero"/></clipPath><clipPath id="d350dd4747"><path d="M 10.476562 22.109375 L 21.648438 22.109375 L 21.648438 31.25 L 10.476562 31.25 Z M 10.476562 22.109375 " clip-rule="nonzero"/></clipPath><clipPath id="5cae842eb3"><path d="M 10.476562 22.109375 L 21.648438 22.109375 L 21.648438 31 L 10.476562 31 Z M 10.476562 22.109375 " clip-rule="nonzero"/></clipPath></defs><g clip-path="url(#bdd27ee568)"><path fill="#000000" d="M 18.425781 3.699219 C 17.460938 3.699219 16.503906 3.796875 15.554688 3.984375 C 14.605469 4.171875 13.683594 4.453125 12.792969 4.820312 C 11.898438 5.191406 11.050781 5.644531 10.246094 6.183594 C 9.441406 6.71875 8.699219 7.332031 8.015625 8.015625 C 7.332031 8.699219 6.71875 9.441406 6.183594 10.246094 C 5.644531 11.050781 5.191406 11.898438 4.820312 12.792969 C 4.453125 13.683594 4.171875 14.605469 3.984375 15.554688 C 3.796875 16.503906 3.699219 17.460938 3.699219 18.425781 C 3.699219 19.394531 3.796875 20.351562 3.984375 21.300781 C 4.171875 22.25 4.453125 23.167969 4.820312 24.0625 C 5.191406 24.957031 5.644531 25.804688 6.183594 26.609375 C 6.71875 27.414062 7.332031 28.15625 8.015625 28.839844 C 8.699219 29.523438 9.441406 30.136719 10.246094 30.671875 C 11.050781 31.210938 11.898438 31.664062 12.792969 32.03125 C 13.683594 32.402344 14.605469 32.683594 15.554688 32.871094 C 16.503906 33.058594 17.460938 33.152344 18.425781 33.152344 C 19.394531 33.152344 20.351562 33.058594 21.300781 32.871094 C 22.25 32.683594 23.167969 32.402344 24.0625 32.03125 C 24.957031 31.664062 25.804688 31.210938 26.609375 30.671875 C 27.414062 30.136719 28.15625 29.523438 28.839844 28.839844 C 29.523438 28.15625 30.136719 27.414062 30.671875 26.609375 C 31.210938 25.804688 31.664062 24.957031 32.03125 24.0625 C 32.402344 23.167969 32.683594 22.25 32.871094 21.300781 C 33.058594 20.351562 33.152344 19.394531 33.152344 18.425781 C 33.152344 17.460938 33.058594 16.503906 32.871094 15.554688 C 32.683594 14.605469 32.402344 13.683594 32.03125 12.792969 C 31.664062 11.898438 31.210938 11.050781 30.671875 10.246094 C 30.136719 9.441406 29.523438 8.699219 28.839844 8.015625 C 28.15625 7.332031 27.414062 6.71875 26.609375 6.183594 C 25.804688 5.644531 24.957031 5.191406 24.0625 4.820312 C 23.167969 4.453125 22.25 4.171875 21.300781 3.984375 C 20.351562 3.796875 19.394531 3.699219 18.425781 3.699219 Z M 18.425781 23.164062 C 18.117188 23.164062 17.808594 23.132812 17.503906 23.074219 C 17.199219 23.011719 16.902344 22.921875 16.613281 22.804688 C 16.328125 22.683594 16.054688 22.539062 15.796875 22.367188 C 15.535156 22.191406 15.296875 21.996094 15.078125 21.777344 C 14.859375 21.558594 14.660156 21.316406 14.488281 21.058594 C 14.316406 20.800781 14.171875 20.527344 14.050781 20.238281 C 13.933594 19.953125 13.84375 19.65625 13.78125 19.351562 C 13.722656 19.046875 13.691406 18.738281 13.691406 18.425781 C 13.691406 18.117188 13.722656 17.808594 13.78125 17.503906 C 13.84375 17.199219 13.933594 16.902344 14.050781 16.613281 C 14.171875 16.328125 14.316406 16.054688 14.488281 15.796875 C 14.660156 15.535156 14.859375 15.296875 15.078125 15.078125 C 15.296875 14.859375 15.535156 14.660156 15.796875 14.488281 C 16.054688 14.316406 16.328125 14.171875 16.613281 14.050781 C 16.902344 13.933594 17.199219 13.84375 17.503906 13.78125 C 17.808594 13.722656 18.117188 13.691406 18.425781 13.691406 C 18.738281 13.691406 19.046875 13.722656 19.351562 13.78125 C 19.65625 13.84375 19.953125 13.933594 20.238281 14.050781 C 20.527344 14.171875 20.800781 14.316406 21.058594 14.488281 C 21.316406 14.660156 21.558594 14.859375 21.777344 15.078125 C 21.996094 15.296875 22.191406 15.535156 22.367188 15.796875 C 22.539062 16.054688 22.683594 16.328125 22.804688 16.613281 C 22.921875 16.902344 23.011719 17.199219 23.074219 17.503906 C 23.132812 17.808594 23.164062 18.117188 23.164062 18.425781 C 23.164062 18.738281 23.132812 19.046875 23.070312 19.351562 C 23.011719 19.65625 22.921875 19.953125 22.800781 20.238281 C 22.683594 20.527344 22.535156 20.800781 22.363281 21.058594 C 22.191406 21.316406 21.996094 21.554688 21.773438 21.773438 C 21.554688 21.996094 21.316406 22.191406 21.058594 22.363281 C 20.800781 22.535156 20.527344 22.683594 20.238281 22.800781 C 19.953125 22.921875 19.65625 23.011719 19.351562 23.070312 C 19.046875 23.132812 18.738281 23.164062 18.425781 23.164062 Z M 18.425781 23.164062 " fill-opacity="1" fill-rule="nonzero"/></g><path fill="#000000" d="M 18.425781 14.480469 C 18.167969 14.480469 17.910156 14.503906 17.65625 14.554688 C 17.402344 14.605469 17.15625 14.683594 16.917969 14.78125 C 16.675781 14.878906 16.449219 15 16.234375 15.144531 C 16.019531 15.289062 15.820312 15.453125 15.636719 15.636719 C 15.453125 15.820312 15.289062 16.019531 15.144531 16.234375 C 15 16.449219 14.878906 16.675781 14.78125 16.917969 C 14.683594 17.15625 14.605469 17.402344 14.554688 17.65625 C 14.503906 17.910156 14.480469 18.167969 14.480469 18.425781 C 14.480469 18.6875 14.503906 18.941406 14.554688 19.199219 C 14.605469 19.453125 14.683594 19.699219 14.78125 19.9375 C 14.878906 20.175781 15 20.40625 15.144531 20.621094 C 15.289062 20.835938 15.453125 21.035156 15.636719 21.21875 C 15.820312 21.402344 16.019531 21.566406 16.234375 21.707031 C 16.449219 21.851562 16.675781 21.972656 16.917969 22.074219 C 17.15625 22.171875 17.402344 22.246094 17.65625 22.296875 C 17.910156 22.347656 18.167969 22.375 18.425781 22.375 C 18.6875 22.375 18.941406 22.347656 19.199219 22.296875 C 19.453125 22.246094 19.699219 22.171875 19.9375 22.074219 C 20.175781 21.972656 20.40625 21.851562 20.621094 21.707031 C 20.835938 21.566406 21.035156 21.402344 21.21875 21.21875 C 21.402344 21.035156 21.566406 20.835938 21.707031 20.621094 C 21.851562 20.40625 21.972656 20.175781 22.074219 19.9375 C 22.171875 19.699219 22.246094 19.453125 22.296875 19.199219 C 22.347656 18.941406 22.375 18.6875 22.375 18.425781 C 22.375 18.167969 22.347656 17.910156 22.296875 17.65625 C 22.246094 17.402344 22.171875 17.15625 22.074219 16.917969 C 21.972656 16.679688 21.851562 16.449219 21.707031 16.234375 C 21.5625 16.019531 21.398438 15.820312 21.21875 15.636719 C 21.035156 15.453125 20.835938 15.289062 20.617188 15.148438 C 20.402344 15.003906 20.175781 14.882812 19.9375 14.78125 C 19.699219 14.683594 19.449219 14.609375 19.195312 14.558594 C 18.941406 14.507812 18.6875 14.480469 18.425781 14.480469 Z M 18.425781 20.507812 C 18.152344 20.507812 17.886719 20.453125 17.632812 20.347656 C 17.375 20.242188 17.152344 20.09375 16.957031 19.898438 C 16.761719 19.703125 16.613281 19.476562 16.503906 19.222656 C 16.398438 18.96875 16.347656 18.703125 16.347656 18.425781 C 16.347656 18.152344 16.398438 17.886719 16.503906 17.632812 C 16.613281 17.375 16.761719 17.152344 16.957031 16.957031 C 17.152344 16.761719 17.375 16.613281 17.632812 16.503906 C 17.886719 16.398438 18.152344 16.347656 18.425781 16.347656 C 18.703125 16.347656 18.96875 16.398438 19.222656 16.503906 C 19.476562 16.613281 19.703125 16.761719 19.898438 16.957031 C 20.09375 17.152344 20.242188 17.375 20.347656 17.632812 C 20.453125 17.886719 20.507812 18.152344 20.507812 18.425781 C 20.507812 18.703125 20.453125 18.96875 20.347656 19.222656 C 20.242188 19.476562 20.09375 19.703125 19.898438 19.898438 C 19.703125 20.09375 19.476562 20.242188 19.222656 20.347656 C 18.96875 20.453125 18.703125 20.507812 18.425781 20.507812 Z M 18.425781 20.507812 " fill-opacity="1" fill-rule="nonzero"/><g clip-path="url(#edfee7d372)"><path fill="#ffffff" d="M 12.417969 24.378906 L 9.441406 24.378906 C 9.261719 24.378906 9.121094 24.523438 9.121094 24.703125 L 9.121094 32.929688 C 9.121094 33.109375 9.261719 33.253906 9.441406 33.253906 L 12.417969 33.253906 C 12.59375 33.253906 12.742188 33.109375 12.742188 32.929688 L 12.742188 24.703125 C 12.742188 24.523438 12.59375 24.378906 12.417969 24.378906 Z M 12.417969 24.378906 " fill-opacity="1" fill-rule="nonzero"/></g><g clip-path="url(#7209baa687)"><path fill="#ffffff" d="M 17.445312 21.101562 L 14.476562 21.101562 C 14.296875 21.101562 14.152344 21.246094 14.152344 21.425781 L 14.152344 32.929688 C 14.152344 33.109375 14.296875 33.253906 14.476562 33.253906 L 17.445312 33.253906 C 17.625 33.253906 17.765625 33.109375 17.765625 32.929688 L 17.765625 21.425781 C 17.765625 21.246094 17.625 21.101562 17.445312 21.101562 Z M 17.445312 21.101562 " fill-opacity="1" fill-rule="nonzero"/></g><g clip-path="url(#cd6e5b504b)"><path fill="#ffffff" d="M 22.476562 17.816406 L 19.507812 17.816406 C 19.328125 17.816406 19.1875 17.964844 19.1875 18.140625 L 19.1875 32.929688 C 19.1875 33.109375 19.328125 33.253906 19.507812 33.253906 L 22.476562 33.253906 C 22.65625 33.253906 22.800781 33.109375 22.800781 32.929688 L 22.800781 18.140625 C 22.800781 17.964844 22.65625 17.816406 22.476562 17.816406 Z M 22.476562 17.816406 " fill-opacity="1" fill-rule="nonzero"/></g><g clip-path="url(#d8d0733e36)"><path fill="#ffffff" d="M 27.511719 14.539062 L 24.535156 14.539062 C 24.363281 14.539062 24.214844 14.683594 24.214844 14.863281 L 24.214844 32.929688 C 24.214844 33.109375 24.363281 33.253906 24.535156 33.253906 L 27.511719 33.253906 C 27.691406 33.253906 27.832031 33.109375 27.832031 32.929688 L 27.832031 14.863281 C 27.832031 14.683594 27.691406 14.539062 27.511719 14.539062 Z M 27.511719 14.539062 " fill-opacity="1" fill-rule="nonzero"/></g><g clip-path="url(#d350dd4747)"><path fill="#d83922" d="M 10.777344 31.175781 L 10.480469 30.902344 L 11.652344 28.476562 L 13.070312 28.957031 L 14.675781 26.03125 L 16.480469 27.15625 L 19.523438 23.824219 L 19.355469 23.667969 L 19.097656 23.421875 L 21.351562 22.109375 L 21.648438 22.382812 L 20.746094 24.960938 L 20.480469 24.722656 L 20.3125 24.566406 L 16.578125 28.703125 L 15.070312 27.761719 L 13.582031 30.285156 L 12.15625 29.800781 L 10.90625 31.25 L 10.777344 31.175781 " fill-opacity="1" fill-rule="evenodd"/></g><g clip-path="url(#5cae842eb3)"><path fill="#f57545" d="M 10.480469 30.902344 L 11.355469 28.203125 L 12.773438 28.683594 L 14.375 25.757812 L 16.183594 26.882812 L 19.226562 23.550781 L 19.058594 23.390625 L 18.800781 23.148438 L 21.351562 22.109375 L 20.449219 24.6875 L 20.179688 24.449219 L 20.015625 24.292969 L 16.371094 28.285156 L 14.773438 27.289062 L 13.285156 30.011719 L 11.859375 29.527344 L 10.609375 30.976562 L 10.480469 30.902344 " fill-opacity="1" fill-rule="evenodd"/></g><path fill="#941a1f" d="M 14.773438 27.289062 L 15.070312 27.761719 L 16.578125 28.703125 L 16.371094 28.285156 L 14.773438 27.289062 " fill-opacity="1" fill-rule="evenodd"/><path fill="#941a1f" d="M 11.859375 29.527344 L 12.15625 29.800781 L 13.582031 30.285156 L 13.285156 30.011719 L 11.859375 29.527344 " fill-opacity="1" fill-rule="evenodd"/></svg>